<svg width="236" height="138" viewBox="0 0 236 138" fill="none" xmlns="http://www.w3.org/2000/svg">
<path d="M173.629 137.326C171.25 137.326 169.266 136.431 167.68 134.641C166.225 132.851 165.498 130.677 165.498 128.12V9.20619C165.498 6.64892 166.225 4.47523 167.68 2.68514C169.266 0.895047 171.25 0 173.629 0H227.374C229.754 0 231.671 0.895047 233.125 2.68514C234.712 4.47523 235.505 6.64892 235.505 9.20619V60.0321H203.972V23.2073C203.972 21.9286 203.708 21.0336 203.179 20.5221C202.782 20.0107 202.055 19.755 200.998 19.755C199.94 19.755 199.147 20.0107 198.618 20.5221C198.089 20.9057 197.824 21.7369 197.824 23.0155V114.118C197.824 115.397 198.023 116.292 198.419 116.804C198.948 117.315 199.742 117.571 200.799 117.571C201.857 117.571 202.65 117.379 203.179 116.995C203.708 116.484 203.972 115.589 203.972 114.31V77.2937H235.505V128.12C235.505 130.677 234.712 132.851 233.125 134.641C231.671 136.431 229.754 137.326 227.374 137.326H173.629Z" fill="#CCFF00"/>
<path d="M82.6335 137.326V0H145.898C148.277 0 150.195 0.895047 151.649 2.68514C153.235 4.47523 154.029 6.64892 154.029 9.20619V128.12C154.029 130.677 153.235 132.851 151.649 134.641C150.195 136.431 148.277 137.326 145.898 137.326H82.6335ZM115.555 117.187H119.521C119.785 117.187 120.05 117.123 120.314 116.995C120.579 116.868 120.777 116.74 120.909 116.612C121.174 116.356 121.372 116.1 121.504 115.845C121.636 115.589 121.703 115.269 121.703 114.886V22.2483C121.703 21.8647 121.57 21.5451 121.306 21.2893C121.174 20.9057 120.909 20.65 120.513 20.5221C120.248 20.2664 119.852 20.1386 119.323 20.1386H115.555V117.187Z" fill="#CCFF00"/>
<path d="M8.13113 137.326C5.75129 137.326 3.76809 136.431 2.18152 134.641C0.727174 132.851 0 130.677 0 128.12V89.5686L32.3262 89.9522V115.461C32.3262 116.74 32.5245 117.635 32.9212 118.146C33.45 118.658 34.3094 118.913 35.4993 118.913C36.557 118.913 37.2842 118.658 37.6809 118.146C38.2097 117.635 38.4741 116.74 38.4741 115.461V89.9522C38.4741 88.5457 38.1436 87.5867 37.4825 87.0753C36.8215 86.436 35.6977 85.7327 34.1111 84.9655L10.1143 74.0332C7.60228 72.8824 5.28854 71.412 3.17312 69.6219C1.05771 67.8318 0 65.1466 0 61.5664V9.20619C0 6.64892 0.727174 4.47523 2.18152 2.68514C3.76809 0.895047 5.75129 0 8.13113 0H62.6692C65.0491 0 66.9662 0.895047 68.4205 2.68514C70.0071 4.47523 70.8004 6.64892 70.8004 9.20619V47.7571H38.4741V21.6729C38.4741 20.5221 38.2097 19.691 37.6809 19.1796C37.2842 18.6681 36.557 18.4124 35.4993 18.4124C34.4416 18.4124 33.6483 18.6681 33.1195 19.1796C32.5906 19.691 32.3262 20.5221 32.3262 21.6729V47.1818C32.3262 48.5883 32.5906 49.5472 33.1195 50.0587C33.7806 50.5701 34.9044 51.2095 36.4909 51.9767L60.8843 63.2926C63.6608 64.5712 65.9746 66.0417 67.8256 67.7039C69.8088 69.3661 70.8004 71.9234 70.8004 75.3757V128.12C70.8004 130.677 70.0071 132.851 68.4205 134.641C66.9662 136.431 65.0491 137.326 62.6692 137.326H8.13113Z" fill="#CCFF00"/>
</svg>
